<mxfile host="app.diagrams.net" modified="2024-02-26T07:02:58.667Z" agent="Mozilla/5.0 (Macintosh; Intel Mac OS X 10_15_7) AppleWebKit/605.1.15 (KHTML, like Gecko) Version/17.1 Safari/605.1.15" version="23.1.6" etag="8elmHMuLO8ZJuYp0t68b" type="github">
  <diagram name="第 1 页" id="M11lKyFoAx9AjnOVz5eN">
    <mxGraphModel>
      <root>
        <mxCell id="0" />
        <mxCell id="1" parent="0" />
      </root>
    </mxGraphModel>
  </diagram>
</mxfile>
